<svg width="172" height="24" viewBox="0 0 172 24" fill="none" xmlns="http://www.w3.org/2000/svg">
<path fill-rule="evenodd" clip-rule="evenodd" d="M54.248 0L45.305 7.127L40.009 0H26.488L35.642 11.404L21.437 23.091H30.431L39.588 15.772L44.877 23.074H58.532L49.162 10.843L63.246 0L54.248 0ZM63.874 7.565L59.528 23.091H66.906L71.239 7.565H63.874ZM75.732 7.586L71.403 23.093H75.486L77.946 14.137L81.042 23.103H84.888L92.443 14.137L89.917 23.081H97.594L101.926 7.594H93.424L86.009 16.537L82.956 7.586H75.732ZM136.48 7.581L124.49 23.099H129.554L131.989 19.779H139.025L139.809 23.099H147.328L143.56 7.565L136.481 7.581H136.48ZM137.608 12.045L138.446 16.231H134.516L137.608 12.045ZM111.572 14.336L114.08 14.331C116.214 14.324 117.545 13.375 118.07 11.482C118.556 9.735 117.668 9.786 115.408 9.792L112.845 9.798L111.572 14.336ZM109.693 20.884L111.834 20.877C114.637 20.871 116.305 20.829 116.841 18.905C117.451 16.703 116.311 16.529 113.42 16.537L110.993 16.542L109.693 20.884ZM101.837 23.11L106.14 7.61L117.64 7.58C123.563 7.565 126.171 8.827 125.468 11.361C124.967 13.163 122.859 14.321 119.147 14.837C123.309 15.343 125.082 16.707 124.463 18.933C123.7 21.681 120.423 23.061 114.624 23.077L101.837 23.11ZM166.499 7.565L159.541 13.705L155.175 7.581L147.465 7.565L153.948 16.585L152.139 23.094H158.943L160.568 17.363L171.467 7.565H166.499ZM4.705 7.581L0 23.091L19.931 23.109L20.897 19.577L8.87 19.568L9.866 16.046L18.339 16.052L19.174 13.042L10.682 13.058L11.319 10.774H21.541L22.386 7.581H4.705Z" fill="#0048FA"/>
</svg>
